<svg width="20" height="20" viewBox="0 0 20 20" fill="none" xmlns="http://www.w3.org/2000/svg">
<g clip-path="url(#clip0_17_3)">
<path d="M16.25 12.2693L16.1376 12.2693C15.6548 7.85263 12.1474 4.34517 7.7307 3.86238L7.7307 3.75L7.7307 2.1262L6.32445 2.9381L3.90625 4.33425L2.5 5.14615L3.90625 5.95805L6.32445 7.35419L7.7307 8.16609L7.7307 6.64772C10.6202 7.09699 12.903 9.37983 13.3523 12.2693L11.8339 12.2693L12.6458 13.6756L14.042 16.0937L14.8539 17.5L15.6658 16.0937L17.0619 13.6756L17.8738 12.2693L16.25 12.2693Z" fill="black" stroke="white" stroke-width="1.875"/>
<path d="M16.25 12.8943L15.5596 12.8943C15.3468 8.32217 11.6778 4.65315 7.1057 4.44037L7.1057 3.75L7.1057 3.20873L6.63695 3.47937L4.21875 4.87551L3.75 5.14615L4.21875 5.41678L6.63695 6.81293L7.1057 7.08356L7.1057 6.54229L7.1057 5.95405C10.8427 6.16393 13.8361 9.15727 14.046 12.8943L13.4577 12.8943L12.9164 12.8943L13.1871 13.3631L14.5832 15.7812L14.8539 16.25L15.1245 15.7812L16.5206 13.3631L16.7913 12.8943L16.25 12.8943Z" fill="black" stroke="black" stroke-width="0.625"/>
</g>
<defs>
<clipPath id="clip0_17_3">
<rect width="20" height="20" fill="white" transform="translate(0 20) rotate(-90)"/>
</clipPath>
</defs>
</svg>
