<svg width="20" height="20" viewBox="0 0 20 20" fill="none" xmlns="http://www.w3.org/2000/svg">
<g clip-path="url(#clip0_17_3)">
<path d="M7.7307 16.25V16.1376C12.1474 15.6548 15.6548 12.1474 16.1376 7.7307H16.25H17.8738L17.0619 6.32445L15.6658 3.90625L14.8539 2.5L14.042 3.90625L12.6458 6.32445L11.8339 7.7307H13.3523C12.903 10.6202 10.6202 12.903 7.7307 13.3523V11.8339L6.32445 12.6458L3.90625 14.042L2.5 14.8539L3.90625 15.6658L6.32445 17.0619L7.7307 17.8738V16.25Z" fill="black" stroke="white" stroke-width="1.875"/>
<path d="M7.1057 16.25V15.5596C11.6778 15.3468 15.3468 11.6778 15.5596 7.1057H16.25H16.7913L16.5206 6.63695L15.1245 4.21875L14.8539 3.75L14.5832 4.21875L13.1871 6.63695L12.9164 7.1057H13.4577H14.046C13.8361 10.8427 10.8427 13.8361 7.1057 14.046V13.4577V12.9164L6.63695 13.1871L4.21875 14.5832L3.75 14.8539L4.21875 15.1245L6.63695 16.5206L7.1057 16.7913V16.25Z" fill="black" stroke="black" stroke-width="0.625"/>
</g>
<defs>
<clipPath id="clip0_17_3">
<rect width="20" height="20" fill="white"/>
</clipPath>
</defs>
</svg>
