<svg width="20" height="20" viewBox="0 0 20 20" fill="none" xmlns="http://www.w3.org/2000/svg">
<g clip-path="url(#clip0_17_3)">
<path d="M12.2693 3.75L12.2693 3.86238C7.85263 4.34517 4.34517 7.85263 3.86238 12.2693L3.75 12.2693L2.1262 12.2693L2.9381 13.6756L4.33425 16.0938L5.14615 17.5L5.95805 16.0938L7.35419 13.6756L8.16609 12.2693L6.64772 12.2693C7.09699 9.37983 9.37983 7.09699 12.2693 6.64772L12.2693 8.16609L13.6756 7.35419L16.0937 5.95804L17.5 5.14615L16.0937 4.33425L13.6756 2.9381L12.2693 2.1262L12.2693 3.75Z" fill="black" stroke="white" stroke-width="1.875"/>
<path d="M12.8943 3.75L12.8943 4.44037C8.32217 4.65315 4.65315 8.32217 4.44037 12.8943L3.75 12.8943L3.20873 12.8943L3.47937 13.3631L4.87551 15.7813L5.14615 16.25L5.41678 15.7813L6.81293 13.3631L7.08356 12.8943L6.54229 12.8943L5.95405 12.8943C6.16393 9.15727 9.15727 6.16393 12.8943 5.95405L12.8943 6.54229L12.8943 7.08356L13.3631 6.81293L15.7812 5.41678L16.25 5.14615L15.7812 4.87551L13.3631 3.47937L12.8943 3.20873L12.8943 3.75Z" fill="black" stroke="black" stroke-width="0.625"/>
</g>
<defs>
<clipPath id="clip0_17_3">
<rect width="20" height="20" fill="white" transform="translate(20 20) rotate(180)"/>
</clipPath>
</defs>
</svg>
