<svg width="20" height="20" viewBox="0 0 20 20" fill="none" xmlns="http://www.w3.org/2000/svg">
<g clip-path="url(#clip0_17_3)">
<path d="M3.75 7.7307L3.86238 7.7307C4.34517 12.1474 7.85263 15.6548 12.2693 16.1376L12.2693 16.25L12.2693 17.8738L13.6756 17.0619L16.0937 15.6658L17.5 14.8539L16.0937 14.042L13.6756 12.6458L12.2693 11.8339L12.2693 13.3523C9.37983 12.903 7.09699 10.6202 6.64772 7.7307L8.16609 7.7307L7.35419 6.32445L5.95805 3.90625L5.14615 2.5L4.33425 3.90625L2.9381 6.32445L2.1262 7.7307L3.75 7.7307Z" fill="black" stroke="white" stroke-width="1.875"/>
<path d="M3.75 7.1057L4.44037 7.1057C4.65315 11.6778 8.32217 15.3468 12.8943 15.5596L12.8943 16.25L12.8943 16.7913L13.3631 16.5206L15.7812 15.1245L16.25 14.8539L15.7812 14.5832L13.3631 13.1871L12.8943 12.9164L12.8943 13.4577L12.8943 14.046C9.15727 13.8361 6.16393 10.8427 5.95405 7.1057L6.54229 7.1057L7.08356 7.1057L6.81293 6.63695L5.41678 4.21875L5.14615 3.75L4.87551 4.21875L3.47937 6.63695L3.20873 7.1057L3.75 7.1057Z" fill="black" stroke="black" stroke-width="0.625"/>
</g>
<defs>
<clipPath id="clip0_17_3">
<rect width="20" height="20" fill="white" transform="translate(20) rotate(90)"/>
</clipPath>
</defs>
</svg>
